<?xml version="1.0" encoding="iso-8859-1"?>
<!-- Uploaded to: SVG Repo, www.svgrepo.com, Generator: SVG Repo Mixer Tools -->
<svg height="800px" width="800px" version="1.1" id="Layer_1" xmlns="http://www.w3.org/2000/svg" xmlns:xlink="http://www.w3.org/1999/xlink" 
	 viewBox="0 0 512 512" xml:space="preserve">
<g transform="translate(1 1)">
	<path style="fill:#FFE100;" d="M477.72,365.933L255,502.467L32.28,365.933V7.533h445.44L477.72,365.933L477.72,365.933z"/>
	<path style="fill:#FFFFFF;" d="M32.28,7.533H7.533v358.4L255,502.467L32.28,365.933V7.533z"/>
	<path style="fill:#FFA800;" d="M477.72,7.533v358.4L255,502.467l247.467-136.533V7.533H477.72z"/>
	<path d="M255,511c-1.707,0-2.56,0-4.267-0.853L3.267,373.613C0.707,371.907-1,369.347-1,365.933V7.533C-1,2.413,2.413-1,7.533-1
		h494.933C507.587-1,511,2.413,511,7.533V127c0,5.12-3.413,8.533-8.533,8.533c-5.12,0-8.533-3.413-8.533-8.533V16.067H16.067
		v344.747L255,492.227l238.933-131.413V195.267c0-5.12,3.413-8.533,8.533-8.533c5.12,0,8.533,3.413,8.533,8.533v170.667
		c0,3.413-1.707,5.973-4.267,7.68L259.267,510.147C257.56,511,256.707,511,255,511z"/>
	<path d="M511,161.133c0-5.12-3.413-8.533-8.533-8.533c-5.12,0-8.533,3.413-8.533,8.533c0,5.12,3.413,8.533,8.533,8.533
		C507.587,169.667,511,166.253,511,161.133"/>
	<path d="M92.013,362.52c-1.707,0-2.56,0-4.267-0.853l-33.28-18.773c-2.56-0.853-4.267-4.267-4.267-6.827v-38.4
		c0-5.12,3.413-8.533,8.533-8.533s8.533,3.413,8.533,8.533v33.28L96.28,347.16c4.267,2.56,5.973,7.68,3.413,11.947
		C97.987,360.813,95.427,362.52,92.013,362.52z"/>
	<path d="M58.733,249.027c-5.12,0-8.533-3.413-8.533-8.533v-86.187c0-5.12,3.413-8.533,8.533-8.533s8.533,3.413,8.533,8.533v86.187
		C67.267,244.76,63.853,249.027,58.733,249.027z"/>
	<path d="M58.733,105.667c-5.12,0-8.533-3.413-8.533-8.533v-38.4c0-5.12,3.413-8.533,8.533-8.533h38.4
		c5.12,0,8.533,3.413,8.533,8.533s-3.413,8.533-8.533,8.533H67.267v29.867C67.267,102.253,63.853,105.667,58.733,105.667z"/>
	<path d="M359.96,67.267h-78.507c-5.12,0-8.533-3.413-8.533-8.533s3.413-8.533,8.533-8.533h78.507c5.12,0,8.533,3.413,8.533,8.533
		S365.08,67.267,359.96,67.267z M228.547,67.267H150.04c-5.12,0-8.533-3.413-8.533-8.533s3.413-8.533,8.533-8.533h78.507
		c5.12,0,8.533,3.413,8.533,8.533S233.667,67.267,228.547,67.267z"/>
	<path d="M451.267,105.667c-5.12,0-8.533-3.413-8.533-8.533V67.267h-29.867c-5.12,0-8.533-3.413-8.533-8.533
		s3.413-8.533,8.533-8.533h38.4c5.12,0,8.533,3.413,8.533,8.533v38.4C459.8,102.253,456.387,105.667,451.267,105.667z"/>
	<path d="M451.267,249.027c-5.12,0-8.533-3.413-8.533-8.533v-86.187c0-5.12,3.413-8.533,8.533-8.533s8.533,3.413,8.533,8.533v86.187
		C459.8,244.76,456.387,249.027,451.267,249.027z"/>
	<path d="M417.987,362.52c-3.413,0-5.973-1.707-7.68-4.267c-2.56-4.267-0.853-9.387,3.413-11.947l29.013-16.213v-32.427
		c0-5.12,3.413-8.533,8.533-8.533s8.533,3.413,8.533,8.533v38.4c0,3.413-1.707,5.973-4.267,7.68l-33.28,18.773
		C420.547,362.52,418.84,362.52,417.987,362.52z"/>
	<path d="M325.827,413.72c-3.413,0-5.973-1.707-7.68-4.267c-2.56-4.267-0.853-9.387,3.413-11.947l55.467-30.72
		c4.267-2.56,9.387-0.853,11.947,3.413c2.56,4.267,0.853,9.387-3.413,11.947l-55.467,30.72
		C328.387,412.867,326.68,413.72,325.827,413.72z"/>
	<path d="M255,452.12c-1.707,0-2.56,0-4.267-0.853l-33.28-18.773c-4.267-2.56-5.973-7.68-3.413-11.947
		c2.56-4.267,7.68-5.973,11.947-3.413L255,434.2l29.867-16.213c4.267-2.56,9.387-0.853,11.947,3.413
		c2.56,4.267,0.853,9.387-3.413,11.947l-34.133,17.92C257.56,452.12,256.707,452.12,255,452.12z"/>
	<path d="M184.173,413.72c-1.707,0-2.56,0-4.267-0.853l-55.467-30.72c-4.267-2.56-5.973-7.68-3.413-11.947
		c2.56-4.267,7.68-5.973,11.947-3.413l55.467,30.72c4.267,2.56,5.973,7.68,3.413,11.947
		C190.147,412.013,187.587,413.72,184.173,413.72z"/>
</g>
</svg>